<svg width="160" height="160" viewBox="0 0 160 160" fill="none" xmlns="http://www.w3.org/2000/svg">
  <rect width="160" height="160" fill="#FAFAFA" />
  <path
    d="M124.688 120.062C117.781 108.062 104.812 100 90 100H70C55.1875 100 42.2188 108.062 35.3125 120.062C46.3125 132.312 62.25 140 80 140C97.75 140 113.688 132.281 124.688 120.062ZM80 85C85.9674 85 91.6903 82.6295 95.9099 78.4099C100.129 74.1903 102.5 68.4674 102.5 62.5C102.5 56.5326 100.129 50.8097 95.9099 46.5901C91.6903 42.3705 85.9674 40 80 40C74.0326 40 68.3097 42.3705 64.0901 46.5901C59.8705 50.8097 57.5 56.5326 57.5 62.5C57.5 68.4674 59.8705 74.1903 64.0901 78.4099C68.3097 82.6295 74.0326 85 80 85Z"
    fill="#A3A3A3" />
</svg>
